<svg width="24" height="24" viewBox="0 0 24 24" fill="none" xmlns="http://www.w3.org/2000/svg">
<path d="M18.8996 11.7006V8.70059M18.8996 8.70059V5.70059M18.8996 8.70059L21.8996 8.70058M18.8996 8.70059H15.8996M14.0996 5.70059V3.90059M14.0996 3.90059V2.10059M14.0996 3.90059L15.8996 3.90059M14.0996 3.90059L12.2996 3.90059M21.2995 14.94C20.3972 15.2136 19.44 15.3608 18.4483 15.3608C13.0303 15.3608 8.63815 10.9686 8.63815 5.55061C8.63815 4.5594 8.78515 3.60252 9.05855 2.70059C5.03112 3.92197 2.09961 7.66363 2.09961 12.09C2.09961 17.508 6.49177 21.9001 11.9098 21.9001C16.3366 21.9001 20.0785 18.9681 21.2995 14.94Z" stroke="black" stroke-width="2" stroke-linecap="round" stroke-linejoin="round"/>
</svg>
